Amstelvar-Italic-opsz84.ufo
<glyph name="exclam" format="2">
  <advance width="604"/>
  <unicode hex="0021"/>
  <outline>
    <contour>
      <point x="83.56923076923077" y="112.64615384615385" type="qcurve" smooth="yes"/>
      <point x="87.35384615384615" y="170.48461538461538"/>
      <point x="148.26923076923077" y="234.45384615384614"/>
      <point x="201.64615384615385" y="234.45384615384614" type="qcurve" smooth="yes"/>
      <point x="249.2923076923077" y="234.45384615384614"/>
      <point x="302.63846153846157" y="166.7"/>
      <point x="296.0153846153846" y="112.64615384615385" type="qcurve" smooth="yes"/>
      <point x="292.2307692307692" y="52.96923076923077"/>
      <point x="231.31538461538463" y="-10.107692307692307"/>
      <point x="177.9923076923077" y="-10.107692307692307" type="qcurve" smooth="yes"/>
      <point x="130.2923076923077" y="-10.107692307692307"/>
      <point x="77.8923076923077" y="56.753846153846155"/>
    </contour>
    <contour>
      <point x="341.23846153846154" y="1381.623076923077" type="line" smooth="yes"/>
      <point x="344.66923076923075" y="1449.623076923077"/>
      <point x="408.23846153846154" y="1536.623076923077"/>
      <point x="463.23846153846154" y="1537.623076923077" type="qcurve" smooth="yes"/>
      <point x="518.2384615384616" y="1538.623076923077"/>
      <point x="550.0230769230769" y="1450.676923076923"/>
      <point x="527.3461538461538" y="1382.623076923077" type="qcurve" smooth="yes"/>
      <point x="438.6923076923077" y="1117.4615384615386" type="line"/>
      <point x="373.61538461538464" y="925.8384615384615" type="line"/>
      <point x="265.96153846153845" y="438.7846153846154" type="line"/>
      <point x="233.56923076923076" y="445.2692307692308" type="line"/>
      <point x="313.2230769230769" y="917.3230769230769" type="line"/>
      <point x="329.46153846153845" y="1128.8153846153846" type="line"/>
    </contour>
  </outline>
</glyph>
<glyph name="parenleft" format="2">
  <advance width="598"/>
  <unicode hex="0028"/>
  <outline>
    <contour>
      <point x="101.38461538461539" y="697.4615384615385" type="qcurve" smooth="yes"/>
      <point x="137.3846153846154" y="949.4615384615385"/>
      <point x="491.16923076923075" y="1427.0"/>
      <point x="666.1692307692308" y="1543.0" type="qcurve"/>
      <point x="686.4846153846154" y="1520.7384615384615" type="line"/>
      <point x="534.9692307692308" y="1383.1153846153845"/>
      <point x="311.46153846153845" y="936.3538461538461"/>
      <point x="277.46153846153845" y="699.3538461538461" type="qcurve" smooth="yes"/>
      <point x="244.46153846153845" y="464.3538461538462"/>
      <point x="338.34615384615387" y="5.023076923076925"/>
      <point x="447.34615384615387" y="-129.54615384615386" type="qcurve"/>
      <point x="421.4384615384615" y="-153.7" type="line"/>
      <point x="280.4384615384615" y="-37.7"/>
      <point x="65.38461538461539" y="436.46153846153845"/>
    </contour>
  </outline>
</glyph>
<glyph name="one" format="2">
  <advance width="677"/>
  <unicode hex="0031"/>
  <outline>
    <contour>
      <point x="137" y="-19" type="line"/>
      <point x="165" y="17"/>
      <point x="196" y="109"/>
      <point x="231" y="269" type="qcurve" smooth="yes"/>
      <point x="429" y="1055" type="line"/>
      <point x="499" y="1370" type="line"/>
      <point x="94" y="1146" type="line"/>
      <point x="73" y="1192" type="line"/>
      <point x="681" y="1510" type="line"/>
      <point x="702" y="1485" type="line"/>
      <point x="678" y="1443"/>
      <point x="650" y="1334"/>
      <point x="633" y="1268" type="qcurve" smooth="yes"/>
      <point x="491" y="714" type="line"/>
      <point x="358" y="125" type="line"/>
      <point x="170" y="-33" type="line"/>
    </contour>
  </outline>
</glyph>
<glyph name="less" format="2">
  <advance width="887"/>
  <unicode hex="003C"/>
  <outline>
    <contour>
      <point x="140.8846153846154" y="637.6615384615385" type="qcurve"/>
      <point x="165.93076923076922" y="671.8230769230769"/>
      <point x="631.9769230769231" y="958.7076923076924"/>
      <point x="694.5153846153846" y="992.4615384615385" type="qcurve" smooth="yes"/>
      <point x="706.2846153846153" y="1000.8307692307692"/>
      <point x="748.6846153846154" y="930.2692307692307"/>
      <point x="740.0769230769231" y="920.7384615384615" type="qcurve" smooth="yes"/>
      <point x="632.6538461538462" y="840.6923076923077"/>
      <point x="357.2153846153846" y="650.9846153846154"/>
      <point x="326.84615384615387" y="637.3923076923077" type="qcurve"/>
      <point x="356.46153846153845" y="625.6923076923077"/>
      <point x="644.6692307692308" y="420.03846153846155"/>
      <point x="732.3692307692307" y="351.5076923076923" type="qcurve"/>
      <point x="739.8461538461538" y="343.76153846153846"/>
      <point x="698.4538461538461" y="275.3076923076923"/>
      <point x="686.6538461538462" y="281.7846153846154" type="qcurve" smooth="yes"/>
      <point x="589.7" y="329.0"/>
      <point x="144.12307692307692" y="609.7692307692307"/>
    </contour>
  </outline>
</glyph>
<glyph name="at" format="2">
  <advance width="1570"/>
  <unicode hex="0040"/>
  <outline>
    <contour>
      <point x="432.63846153846157" y="634.123076923077" type="qcurve" smooth="yes"/>
      <point x="432.63846153846157" y="831.7615384615384"/>
      <point x="732.1846153846154" y="1154.8615384615384"/>
      <point x="925.1846153846154" y="1154.8615384615384" type="qcurve" smooth="yes"/>
      <point x="944.0230769230769" y="1154.8615384615384"/>
      <point x="1020.4923076923077" y="1114.8"/>
      <point x="1031.7076923076922" y="1089.9307692307693" type="qcurve"/>
      <point x="1097.323076923077" y="1210.0" type="line"/>
      <point x="1139.323076923077" y="1210.0" type="line"/>
      <point x="1168.9384615384615" y="1097.0" type="line"/>
      <point x="1060.6153846153845" y="703.6846153846154" type="line"/>
      <point x="1023.9384615384615" y="533.6307692307693" type="line"/>
      <point x="1014.9076923076923" y="488.1923076923077"/>
      <point x="1068.2923076923078" y="445.13076923076926"/>
      <point x="1102.2923076923078" y="445.13076923076926" type="qcurve" smooth="yes"/>
      <point x="1223.2923076923078" y="445.13076923076926"/>
      <point x="1435.9769230769232" y="663.2153846153847"/>
      <point x="1472.9769230769232" y="854.2153846153847" type="qcurve" smooth="yes"/>
      <point x="1515.9769230769232" y="1078.2153846153847"/>
      <point x="1231.1076923076923" y="1420.9"/>
      <point x="926.9461538461538" y="1420.9" type="qcurve" smooth="yes"/>
      <point x="644.0615384615385" y="1420.9"/>
      <point x="277.17692307692306" y="1104.9076923076923"/>
      <point x="209.82307692307694" y="774.8461538461538" type="qcurve" smooth="yes"/>
      <point x="141.9" y="442.61538461538464"/>
      <point x="433.5230769230769" y="47.90769230769231"/>
      <point x="675.0538461538462" y="47.90769230769231" type="qcurve" smooth="yes"/>
      <point x="795.1846153846154" y="47.90769230769231"/>
      <point x="971.9923076923077" y="84.46923076923078"/>
      <point x="1044.753846153846" y="130.66153846153847" type="qcurve"/>
      <point x="1056.8538461538462" y="117.46153846153847" type="line"/>
      <point x="996.3692307692307" y="66.46153846153847"/>
      <point x="760.3153846153846" y="-30.0"/>
      <point x="659.2461538461539" y="-30.0" type="qcurve" smooth="yes"/>
      <point x="372.33846153846156" y="-30.0"/>
      <point x="29.93846153846154" y="399.0"/>
      <point x="97.66923076923077" y="747.7076923076924" type="qcurve" smooth="yes"/>
      <point x="163.6153846153846" y="1085.4384615384615"/>
      <point x="661.8" y="1520.0"/>
      <point x="946.323076923077" y="1520.0" type="qcurve" smooth="yes"/>
      <point x="1276.8615384615384" y="1520.0"/>
      <point x="1569.3307692307692" y="1136.9923076923078"/>
      <point x="1515.9538461538461" y="863.0" type="qcurve" smooth="yes"/>
      <point x="1470.9" y="630.0"/>
      <point x="1233.4" y="372.9230769230769"/>
      <point x="1090.4" y="372.9230769230769" type="qcurve" smooth="yes"/>
      <point x="1015.4" y="372.9230769230769"/>
      <point x="913.5923076923077" y="487.63076923076926"/>
      <point x="904.5923076923077" y="548.6307692307693" type="qcurve"/>
      <point x="842.9538461538461" y="467.82307692307694"/>
      <point x="727.0769230769231" y="377.76153846153846"/>
      <point x="641.2615384615385" y="377.76153846153846" type="qcurve" smooth="yes"/>
      <point x="554.1307692307693" y="377.76153846153846"/>
      <point x="432.63846153846157" y="531.876923076923"/>
    </contour>
    <contour>
      <point x="561.876923076923" y="630.7076923076924" type="qcurve" smooth="yes"/>
      <point x="561.876923076923" y="565.9230769230769"/>
      <point x="642.6384615384616" y="476.46153846153845"/>
      <point x="681.0384615384615" y="476.46153846153845" type="qcurve" smooth="yes"/>
      <point x="766.3307692307692" y="476.46153846153845"/>
      <point x="909.6692307692308" y="595.4"/>
      <point x="949.2923076923078" y="736.5076923076923" type="qcurve" smooth="yes"/>
      <point x="1022.2692307692307" y="1042.7384615384615" type="line"/>
      <point x="1019.2692307692307" y="1075.7384615384615"/>
      <point x="956.8923076923077" y="1122.2846153846153"/>
      <point x="918.8923076923077" y="1122.2846153846153" type="qcurve" smooth="yes"/>
      <point x="735.8923076923077" y="1122.2846153846153"/>
      <point x="561.876923076923" y="791.376923076923"/>
    </contour>
  </outline>
</glyph>
<glyph name="J" format="2">
  <advance width="615"/>
  <unicode hex="004A"/>
  <outline>
    <contour>
      <point x="-140.48461538461538" y="-12.115384615384613" type="qcurve"/>
      <point x="-132.97692307692307" y="19.053846153846152" type="line"/>
      <point x="-115.81538461538462" y="18.67692307692306"/>
      <point x="-101.36923076923077" y="17.707692307692298"/>
      <point x="-89.73076923076923" y="17.707692307692298" type="qcurve" smooth="yes"/>
      <point x="13.769230769230774" y="17.707692307692298"/>
      <point x="117.68461538461538" y="114.35384615384615"/>
      <point x="142.84615384615387" y="232.16153846153844" type="qcurve" smooth="yes"/>
      <point x="249.51538461538462" y="754.0" type="line"/>
      <point x="392.84615384615387" y="1454.7230769230769" type="line"/>
      <point x="212.1769230769231" y="1466.423076923077" type="line"/>
      <point x="218.55384615384617" y="1500.0" type="line"/>
      <point x="730.4076923076923" y="1500.0" type="line"/>
      <point x="724.0307692307692" y="1466.423076923077" type="line"/>
      <point x="559.6846153846154" y="1454.7230769230769" type="line"/>
      <point x="412.3538461538462" y="754.0" type="line"/>
      <point x="323.68461538461537" y="316.5923076923077" type="line" smooth="yes"/>
      <point x="287.7692307692308" y="138.98461538461538"/>
      <point x="113.25384615384615" y="-27.246153846153845"/>
      <point x="-7.907692307692301" y="-27.246153846153845" type="qcurve" smooth="yes"/>
      <point x="-50.57692307692307" y="-27.246153846153845"/>
      <point x="-112.91538461538462" y="-18.438461538461553"/>
    </contour>
  </outline>
</glyph>
<glyph name="M" format="2">
  <advance width="1647"/>
  <unicode hex="004D"/>
  <outline>
    <contour>
      <point x="-110.15384615384615" y="0.0" type="line"/>
      <point x="-104.93846153846154" y="29.038461538461547" type="line"/>
      <point x="90.7923076923077" y="48.769230769230774" type="line"/>
      <point x="239.33846153846153" y="747.376923076923" type="line"/>
      <point x="377.9384615384615" y="1451.476923076923" type="line"/>
      <point x="194.93846153846152" y="1466.423076923077" type="line"/>
      <point x="201.31538461538463" y="1500.0" type="line"/>
      <point x="574.0076923076923" y="1500.0" type="line"/>
      <point x="656.1076923076923" y="821.9538461538461" type="line"/>
      <point x="725.8846153846154" y="190.23846153846154" type="line"/>
      <point x="1042.0153846153846" y="825.6769230769231" type="line"/>
      <point x="1400.0384615384614" y="1500.0" type="line"/>
      <point x="1751.9692307692308" y="1500.0" type="line"/>
      <point x="1745.1615384615384" y="1466.423076923077" type="line"/>
      <point x="1582.7615384615385" y="1454.3153846153846" type="line"/>
      <point x="1432.5923076923077" y="751.1615384615385" type="line"/>
      <point x="1285.2076923076922" y="44.03846153846155" type="line"/>
      <point x="1455.4461538461537" y="29.038461538461547" type="line"/>
      <point x="1450.2307692307693" y="0.0" type="line"/>
      <point x="939.4846153846154" y="0.0" type="line"/>
      <point x="944.7" y="29.038461538461547" type="line"/>
      <point x="1118.3692307692309" y="44.03846153846155" type="line"/>
      <point x="1269.753846153846" y="751.1615384615385" type="line"/>
      <point x="1415.5692307692307" y="1455.746153846154" type="line"/>
      <point x="1071.1923076923076" y="796.7923076923076" type="line"/>
      <point x="675.1461538461539" y="-6.107692307692307" type="line"/>
      <point x="590.6384615384616" y="-6.107692307692307" type="line"/>
      <point x="508.1615384615385" y="750.0" type="line"/>
      <point x="418.13846153846157" y="1448.7230769230769" type="line"/>
      <point x="274.4846153846154" y="747.376923076923" type="line"/>
      <point x="128.04615384615386" y="48.769230769230774" type="line"/>
      <point x="324.9923076923077" y="29.038461538461547" type="line"/>
      <point x="319.23846153846154" y="0.0" type="line"/>
    </contour>
  </outline>
</glyph>
<glyph name="W" format="2">
  <advance width="1671"/>
  <unicode hex="0057"/>
  <outline>
    <contour>
      <point x="87.07692307692308" y="1468.3153846153846" type="line"/>
      <point x="93.1" y="1500.0" type="line"/>
      <point x="540.4692307692308" y="1500.0" type="line"/>
      <point x="534.4461538461538" y="1468.3153846153846" type="line"/>
      <point x="380.2307692307692" y="1453.9923076923078" type="line"/>
      <point x="429.96923076923076" y="834.223076923077" type="line"/>
      <point x="476.9769230769231" y="228.12307692307692" type="line"/>
      <point x="482.5692307692308" y="228.12307692307692" type="line"/>
      <point x="701.2615384615385" y="684.0153846153846" type="line"/>
      <point x="922.2769230769231" y="1157.6076923076923" type="line"/>
      <point x="947.4384615384615" y="1112.1153846153845" type="line"/>
      <point x="739.1692307692308" y="669.6692307692308" type="line"/>
      <point x="423.94615384615383" y="-6.107692307692307" type="line"/>
      <point x="334.1384615384615" y="-6.107692307692307" type="line"/>
      <point x="268.5076923076923" y="817.5846153846154" type="line"/>
      <point x="216.01538461538462" y="1454.9384615384615" type="line"/>
    </contour>
    <contour>
      <point x="709.6" y="1474.423076923077" type="line"/>
      <point x="713.5692307692308" y="1500.0" type="line"/>
      <point x="1156.8076923076924" y="1500.0" type="line"/>
      <point x="1152.8384615384616" y="1473.9923076923078" type="line"/>
      <point x="994.1615384615385" y="1455.3153846153846" type="line"/>
      <point x="1029.4923076923078" y="828.3846153846154" type="line"/>
      <point x="1061.7384615384615" y="221.44615384615383" type="line"/>
      <point x="1068.1692307692308" y="221.44615384615383" type="line"/>
      <point x="1359.6307692307691" y="826.6538461538462" type="line"/>
      <point x="1657.7692307692307" y="1451.476923076923" type="line"/>
      <point x="1459.0923076923077" y="1468.3153846153846" type="line"/>
      <point x="1464.523076923077" y="1500.0" type="line"/>
      <point x="1915.5692307692307" y="1500.0" type="line"/>
      <point x="1910.1384615384616" y="1468.3153846153846" type="line"/>
      <point x="1706.7230769230769" y="1450.2615384615385" type="line"/>
      <point x="1397.8076923076924" y="807.3076923076923" type="line"/>
      <point x="1011.5461538461539" y="-6.107692307692307" type="line"/>
      <point x="921.3615384615384" y="-6.107692307692307" type="line"/>
      <point x="868.8692307692307" y="816.3153846153846" type="line"/>
      <point x="829.8384615384615" y="1455.3153846153846" type="line"/>
    </contour>
  </outline>
</glyph>
<glyph name="bracketright" format="2">
  <advance width="609"/>
  <unicode hex="005D"/>
  <outline>
    <contour>
      <point x="-106.55384615384617" y="-168.7153846153846" type="line"/>
      <point x="-97.74615384615385" y="-134.86923076923077" type="line"/>
      <point x="115.1076923076923" y="-116.81538461538463" type="line"/>
      <point x="286.4307692307692" y="631.0" type="line"/>
      <point x="458.4076923076923" y="1444.3153846153846" type="line"/>
      <point x="222.27692307692308" y="1463.3153846153846" type="line"/>
      <point x="232.08461538461538" y="1495.2692307692307" type="line"/>
      <point x="664.5384615384615" y="1500.0" type="line"/>
      <point x="651.9461538461538" y="1464.3153846153846" type="line"/>
      <point x="619.4846153846154" y="1444.3153846153846" type="line"/>
      <point x="442.4307692307692" y="631.0" type="line"/>
      <point x="286.5923076923077" y="-113.03076923076924" type="line"/>
      <point x="301.5923076923077" y="-133.03076923076924" type="line"/>
      <point x="294.67692307692306" y="-168.7153846153846" type="line"/>
    </contour>
  </outline>
</glyph>
<glyph name="f" format="2">
  <advance width="473"/>
  <unicode hex="0066"/>
  <outline>
    <contour>
      <point x="-488.55384615384617" y="-418.24615384615385" type="line" smooth="yes"/>
      <point x="-476.66153846153844" y="-390.15384615384613" type="line"/>
      <point x="-345.5" y="-390.04615384615386" type="line" smooth="yes"/>
      <point x="-148.96923076923076" y="-389.9384615384615"/>
      <point x="18.47692307692308" y="-105.80000000000001"/>
      <point x="82.88461538461539" y="303.11538461538464" type="qcurve" smooth="yes"/>
      <point x="171.52307692307693" y="854.8538461538461" type="line"/>
      <point x="174.06153846153848" y="861.5769230769231" type="line"/>
      <point x="222.13846153846154" y="1115.7230769230769" type="line" smooth="yes"/>
      <point x="264.76153846153846" y="1340.923076923077"/>
      <point x="457.7692307692308" y="1552.6692307692308"/>
      <point x="584.8" y="1551.7230769230769" type="qcurve" smooth="yes"/>
      <point x="679.2615384615385" y="1550.7769230769231"/>
      <point x="786.723076923077" y="1479.7769230769231"/>
      <point x="783.8846153846154" y="1408.9615384615386" type="qcurve" smooth="yes"/>
      <point x="781.9923076923077" y="1350.9307692307693"/>
      <point x="710.9615384615385" y="1299.9307692307693"/>
      <point x="647.0615384615385" y="1299.9307692307693" type="qcurve" smooth="yes"/>
      <point x="649.9846153846154" y="1326.423076923077"/>
      <point x="655.3384615384615" y="1404.4923076923078"/>
      <point x="656.2846153846153" y="1435.7384615384615" type="qcurve" smooth="yes"/>
      <point x="658.1769230769231" y="1472.2"/>
      <point x="629.3692307692307" y="1513.5"/>
      <point x="587.8" y="1514.446153846154" type="qcurve" smooth="yes"/>
      <point x="519.2307692307693" y="1516.3384615384616"/>
      <point x="398.73846153846154" y="1343.1307692307691"/>
      <point x="356.3" y="1093.6384615384616" type="qcurve" smooth="yes"/>
      <point x="318.6" y="862.3076923076923" type="line"/>
      <point x="317.6" y="854.3384615384615" type="line"/>
      <point x="272.7" y="561.2384615384615" type="line" smooth="yes"/>
      <point x="188.91538461538462" y="11.400000000000006"/>
      <point x="-144.3076923076923" y="-477.2769230769231"/>
      <point x="-329.1" y="-477.2769230769231" type="qcurve"/>
    </contour>
    <contour>
      <point x="8.60769230769231" y="828.0461538461539" type="line"/>
      <point x="8.284615384615385" y="860.4153846153846" type="line"/>
      <point x="187.95384615384614" y="873.0846153846154" type="line"/>
      <point x="511.05384615384617" y="880.6538461538462" type="line"/>
      <point x="504.83846153846156" y="846.6461538461539" type="line"/>
      <point x="230.48461538461538" y="832.8307692307692" type="line"/>
      <point x="187.95384615384614" y="825.2384615384616" type="line"/>
    </contour>
  </outline>
</glyph>
<glyph name="g" format="2">
  <advance width="975"/>
  <unicode hex="0067"/>
  <outline>
    <contour>
      <point x="-13.93076923076923" y="266.83846153846156" type="qcurve" smooth="yes"/>
      <point x="-13.93076923076923" y="526.1538461538462"/>
      <point x="408.39230769230767" y="940.5307692307692"/>
      <point x="582.4384615384615" y="940.5307692307692" type="qcurve" smooth="yes"/>
      <point x="629.3615384615384" y="940.5307692307692"/>
      <point x="703.9076923076923" y="909.7692307692307"/>
      <point x="729.6923076923077" y="875.1153846153846" type="qcurve"/>
      <point x="806.4769230769231" y="945.2538461538461" type="line"/>
      <point x="824.0923076923077" y="944.3076923076923" type="line"/>
      <point x="872.6846153846154" y="855.4307692307692" type="line"/>
      <point x="796.7615384615385" y="581.376923076923" type="line" smooth="yes"/>
      <point x="773.1153846153846" y="378.4230769230769"/>
      <point x="697.8692307692307" y="62.44615384615385"/>
      <point x="644.7538461538461" y="-55.13076923076923" type="qcurve" smooth="yes"/>
      <point x="556.9153846153846" y="-253.86153846153846"/>
      <point x="236.59230769230768" y="-478.1923076923077"/>
      <point x="109.9" y="-478.1923076923077" type="qcurve"/>
      <point x="-50.530769230769224" y="-419.2692307692308" type="line"/>
      <point x="-39.06923076923077" y="-392.46923076923076" type="line"/>
      <point x="94.78461538461539" y="-391.87692307692305" type="line" smooth="yes"/>
      <point x="280.9307692307692" y="-391.44615384615383"/>
      <point x="554.4" y="-139.35384615384615"/>
      <point x="599.5615384615385" y="210.73076923076923" type="qcurve" smooth="yes"/>
      <point x="605.2307692307693" y="249.24615384615385" type="line"/>
      <point x="528.376923076923" y="143.63076923076923"/>
      <point x="311.9153846153846" y="-2.9230769230769234"/>
      <point x="187.93076923076922" y="-2.9230769230769234" type="qcurve" smooth="yes"/>
      <point x="70.93076923076923" y="-2.9230769230769234"/>
      <point x="-13.93076923076923" y="163.51538461538462"/>
    </contour>
    <contour>
      <point x="132.14615384615385" y="297.61538461538464" type="qcurve" smooth="yes"/>
      <point x="132.14615384615385" y="206.53076923076924"/>
      <point x="207.2846153846154" y="62.16923076923078"/>
      <point x="282.9076923076923" y="62.16923076923078" type="qcurve" smooth="yes"/>
      <point x="379.1461538461539" y="62.16923076923078"/>
      <point x="599.4692307692308" y="265.25384615384615"/>
      <point x="636.5230769230769" y="441.3076923076923" type="qcurve" smooth="yes"/>
      <point x="717.2307692307693" y="827.3076923076923" type="line"/>
      <point x="702.876923076923" y="866.3615384615384"/>
      <point x="637.8538461538461" y="897.0923076923077"/>
      <point x="580.7692307692307" y="897.0923076923077" type="qcurve" smooth="yes"/>
      <point x="412.04615384615386" y="897.0923076923077"/>
      <point x="132.14615384615385" y="516.6153846153846"/>
    </contour>
  </outline>
</glyph>
<glyph name="i" format="2">
  <advance width="476"/>
  <unicode hex="0069"/>
  <outline>
    <contour>
      <point x="60.16923076923078" y="-14.376923076923077" type="line"/>
      <point x="11.600000000000009" y="61.37692307692308" type="line"/>
      <point x="125.46923076923078" y="545.9230769230769" type="line"/>
      <point x="173.22307692307692" y="832.3" type="line"/>
      <point x="25.876923076923077" y="849.223076923077" type="line"/>
      <point x="28.823076923076925" y="874.3153846153846" type="line"/>
      <point x="308.17692307692306" y="926.4153846153846" type="line"/>
      <point x="336.95384615384614" y="913.1692307692308" type="line"/>
      <point x="323.89230769230767" y="842.5846153846154" type="line"/>
      <point x="287.32307692307694" y="671.6769230769231" type="line"/>
      <point x="168.10769230769233" y="87.01538461538462" type="line"/>
      <point x="347.4769230769231" y="105.33846153846153" type="line"/>
      <point x="347.4769230769231" y="81.67692307692307" type="line"/>
    </contour>
    <contour>
      <point x="219.0846153846154" y="1284.9615384615386" type="qcurve" smooth="yes"/>
      <point x="223.19230769230768" y="1335.446153846154"/>
      <point x="276.67692307692306" y="1391.876923076923"/>
      <point x="322.10769230769233" y="1391.876923076923" type="qcurve" smooth="yes"/>
      <point x="364.4846153846154" y="1391.876923076923"/>
      <point x="410.9153846153846" y="1331.446153846154"/>
      <point x="404.9153846153846" y="1284.9615384615386" type="qcurve" smooth="yes"/>
      <point x="400.8076923076923" y="1232.5846153846153"/>
      <point x="347.32307692307694" y="1177.1"/>
      <point x="301.89230769230767" y="1177.1" type="qcurve" smooth="yes"/>
      <point x="259.5153846153846" y="1177.1"/>
      <point x="213.0846153846154" y="1236.5846153846153"/>
    </contour>
  </outline>
</glyph>
<glyph name="m" format="2">
  <advance width="1499"/>
  <unicode hex="006D"/>
  <outline>
    <contour>
      <point x="22.65384615384616" y="-5.969230769230769" type="line"/>
      <point x="20.392307692307696" y="45.59230769230769" type="line"/>
      <point x="115.82307692307693" y="491.9923076923077" type="line"/>
      <point x="170.66153846153847" y="825.7846153846153" type="line"/>
      <point x="41.90769230769231" y="850.1692307692308" type="line"/>
      <point x="42.01538461538462" y="874.3153846153846" type="line"/>
      <point x="297.9153846153846" y="927.2" type="line"/>
      <point x="312.6923076923077" y="913.9538461538461" type="line"/>
      <point x="283.24615384615385" y="658.4153846153846" type="line"/>
      <point x="273.9" y="629.6307692307693" type="line"/>
      <point x="175.52307692307693" y="87.0" type="line"/>
      <point x="177.19230769230768" y="14.407692307692308" type="line"/>
    </contour>
    <contour>
      <point x="535.3384615384616" y="-2.430769230769231" type="line"/>
      <point x="536.7769230769231" y="66.8923076923077" type="line"/>
      <point x="666.4" y="696.3230769230769" type="line" smooth="yes"/>
      <point x="681.4538461538461" y="769.8615384615384"/>
      <point x="622.6923076923077" y="871.3230769230769"/>
      <point x="576.9153846153846" y="871.3230769230769" type="qcurve" smooth="yes"/>
      <point x="506.3538461538462" y="871.3230769230769"/>
      <point x="337.96153846153845" y="728.3846153846154"/>
      <point x="255.41538461538462" y="597.8307692307692" type="qcurve"/>
      <point x="242.93076923076922" y="624.4384615384615" type="line"/>
      <point x="309.82307692307694" y="737.6307692307693"/>
      <point x="556.7615384615385" y="946.2538461538461"/>
      <point x="642.5923076923077" y="946.2538461538461" type="qcurve" smooth="yes"/>
      <point x="717.5307692307692" y="946.2538461538461"/>
      <point x="824.823076923077" y="779.5461538461539"/>
      <point x="808.0153846153846" y="695.6384615384616" type="qcurve" smooth="yes"/>
      <point x="683.123076923077" y="80.20769230769231" type="line"/>
      <point x="680.8692307692307" y="20.946153846153845" type="line"/>
    </contour>
    <contour>
      <point x="1089.246153846154" y="-11.753846153846155" type="line"/>
      <point x="1042.5692307692307" y="81.03076923076924" type="line"/>
      <point x="1177.0846153846155" y="696.3230769230769" type="line" smooth="yes"/>
      <point x="1193.0846153846155" y="769.8615384615384"/>
      <point x="1133.376923076923" y="871.3230769230769"/>
      <point x="1087.6" y="871.3230769230769" type="qcurve" smooth="yes"/>
      <point x="1017.9846153846154" y="871.3230769230769"/>
      <point x="852.4307692307692" y="754.876923076923"/>
      <point x="767.9923076923077" y="647.0307692307692" type="qcurve"/>
      <point x="763.0769230769231" y="677.4230769230769" type="line"/>
      <point x="831.8615384615384" y="780.2076923076924"/>
      <point x="1070.2846153846153" y="946.2538461538461"/>
      <point x="1155.1692307692308" y="946.2538461538461" type="qcurve" smooth="yes"/>
      <point x="1228.2153846153847" y="946.2538461538461"/>
      <point x="1335.4538461538461" y="779.5461538461539"/>
      <point x="1318.7" y="695.6384615384616" type="qcurve" smooth="yes"/>
      <point x="1184.2384615384615" y="81.01538461538462" type="line"/>
      <point x="1333.4846153846154" y="108.45384615384616" type="line"/>
      <point x="1333.4846153846154" y="84.79230769230769" type="line"/>
    </contour>
  </outline>
</glyph>
<glyph name="p" format="2">
  <advance width="923"/>
  <unicode hex="0070"/>
  <outline>
    <contour>
      <point x="-91.53076923076922" y="-467.6923076923077" type="line"/>
      <point x="113.82307692307693" y="514.5" type="line"/>
      <point x="161.33846153846153" y="820.3076923076923" type="line"/>
      <point x="152.8846153846154" y="896.2" type="line"/>
      <point x="294.53846153846155" y="964.5" type="line"/>
      <point x="310.1" y="951.2538461538461" type="line"/>
      <point x="284.0076923076923" y="749.5769230769231" type="line"/>
      <point x="365.33076923076925" y="825.3076923076923"/>
      <point x="571.8692307692307" y="941.6615384615385"/>
      <point x="651.0307692307692" y="941.6615384615385" type="qcurve" smooth="yes"/>
      <point x="754.7846153846153" y="941.6615384615385"/>
      <point x="844.5923076923077" y="791.8461538461538"/>
      <point x="844.5923076923077" y="733.9384615384615" type="qcurve" smooth="yes"/>
      <point x="844.5923076923077" y="425.10769230769233"/>
      <point x="488.96153846153845" y="43.246153846153845"/>
      <point x="272.33846153846156" y="43.246153846153845" type="qcurve" smooth="yes"/>
      <point x="237.55384615384617" y="43.246153846153845"/>
      <point x="175.14615384615385" y="59.92307692307692"/>
      <point x="150.36153846153846" y="74.65384615384616" type="qcurve"/>
      <point x="52.976923076923086" y="-438.05384615384617" type="line"/>
      <point x="187.43846153846152" y="-438.31538461538463" type="line"/>
      <point x="184.03846153846155" y="-458.2769230769231" type="line"/>
      <point x="-73.6" y="-495.11538461538464" type="line"/>
    </contour>
    <contour>
      <point x="161.97692307692307" y="117.61538461538461" type="line"/>
      <point x="178.41538461538462" y="99.1923076923077"/>
      <point x="236.36153846153846" y="79.11538461538461"/>
      <point x="284.4153846153846" y="79.11538461538461" type="qcurve" smooth="yes"/>
      <point x="451.24615384615385" y="79.11538461538461"/>
      <point x="703.0307692307692" y="475.10769230769233"/>
      <point x="703.0307692307692" y="697.0769230769231" type="qcurve" smooth="yes"/>
      <point x="703.0307692307692" y="772.0769230769231"/>
      <point x="642.9769230769231" y="869.3538461538461"/>
      <point x="573.9769230769231" y="869.3538461538461" type="qcurve" smooth="yes"/>
      <point x="504.6" y="869.3538461538461"/>
      <point x="345.2" y="774.9230769230769"/>
      <point x="276.9307692307692" y="712.7615384615384" type="qcurve"/>
      <point x="244.52307692307693" y="554.0769230769231" type="line"/>
    </contour>
  </outline>
</glyph>
<glyph name="s" format="2">
  <advance width="736"/>
  <unicode hex="0073"/>
  <outline>
    <contour>
      <point x="-50.9076923076923" y="155.12307692307692" type="qcurve" smooth="yes"/>
      <point x="-50.9076923076923" y="208.63076923076923"/>
      <point x="18.00769230769231" y="264.5692307692308"/>
      <point x="67.43846153846154" y="264.5692307692308" type="qcurve" smooth="yes"/>
      <point x="76.40769230769232" y="264.5692307692308" type="line"/>
      <point x="76.40769230769232" y="177.96923076923076" type="line" smooth="yes"/>
      <point x="76.40769230769232" y="90.28461538461539"/>
      <point x="151.19230769230768" y="16.630769230769232"/>
      <point x="229.35384615384618" y="16.630769230769232" type="qcurve" smooth="yes"/>
      <point x="327.24615384615385" y="16.630769230769232"/>
      <point x="472.2230769230769" y="130.63846153846154"/>
      <point x="472.2230769230769" y="203.69230769230768" type="qcurve" smooth="yes"/>
      <point x="472.2230769230769" y="266.8"/>
      <point x="367.54615384615386" y="369.9923076923077"/>
      <point x="279.73846153846154" y="427.53076923076924" type="qcurve" smooth="yes"/>
      <point x="163.27692307692308" y="504.15384615384613"/>
      <point x="82.33846153846153" y="624.5307692307692"/>
      <point x="83.33846153846153" y="703.0153846153846" type="qcurve" smooth="yes"/>
      <point x="84.33846153846153" y="798.5538461538462"/>
      <point x="267.73846153846154" y="943.2538461538461"/>
      <point x="399.46153846153845" y="943.2538461538461" type="qcurve" smooth="yes"/>
      <point x="513.7307692307693" y="943.2538461538461"/>
      <point x="618.9153846153846" y="853.0692307692308"/>
      <point x="618.9153846153846" y="801.6692307692308" type="qcurve" smooth="yes"/>
      <point x="618.9153846153846" y="753.7538461538461"/>
      <point x="556.323076923077" y="686.4615384615385"/>
      <point x="506.32307692307694" y="686.4615384615385" type="qcurve" smooth="yes"/>
      <point x="495.4076923076923" y="700.6538461538462" type="line"/>
      <point x="495.4076923076923" y="800.6461538461539" type="line" smooth="yes"/>
      <point x="495.4076923076923" y="839.0"/>
      <point x="431.5692307692308" y="900.0538461538462"/>
      <point x="369.9769230769231" y="900.0538461538462" type="qcurve" smooth="yes"/>
      <point x="288.3538461538462" y="900.0538461538462"/>
      <point x="167.7846153846154" y="824.0230769230769"/>
      <point x="167.7846153846154" y="758.6692307692308" type="qcurve" smooth="yes"/>
      <point x="167.7846153846154" y="715.1846153846154"/>
      <point x="272.86923076923074" y="638.3461538461538"/>
      <point x="370.4384615384615" y="568.9384615384615" type="qcurve" smooth="yes"/>
      <point x="460.4076923076923" y="504.61538461538464"/>
      <point x="564.3461538461538" y="394.2692307692308"/>
      <point x="564.3461538461538" y="310.65384615384613" type="qcurve"/>
      <point x="564.4538461538461" y="159.94615384615383"/>
      <point x="348.4" y="-10.26923076923077"/>
      <point x="205.73076923076923" y="-10.26923076923077" type="qcurve" smooth="yes"/>
      <point x="74.70769230769231" y="-10.26923076923077"/>
      <point x="-50.9076923076923" y="80.63846153846154"/>
    </contour>
  </outline>
</glyph>
<glyph name="v" format="2">
  <advance width="808"/>
  <unicode hex="0076"/>
  <outline>
    <contour>
      <point x="-39.8" y="848.276923076923" type="line"/>
      <point x="-43.47692307692307" y="872.4230769230769" type="line"/>
      <point x="186.87692307692308" y="928.1461538461539" type="line"/>
      <point x="213.24615384615385" y="913.9538461538461" type="line"/>
      <point x="241.48461538461538" y="522.8846153846154" type="line"/>
      <point x="280.9153846153846" y="105.6076923076923" type="line"/>
      <point x="444.04615384615386" y="260.9153846153846"/>
      <point x="690.3384615384615" y="617.8615384615384"/>
      <point x="690.3384615384615" y="735.6538461538462" type="qcurve" smooth="yes"/>
      <point x="690.3384615384615" y="799.5692307692308"/>
      <point x="628.4538461538461" y="880.8615384615384"/>
      <point x="559.3846153846154" y="923.9153846153846" type="qcurve" smooth="yes"/>
      <point x="581.1461538461539" y="932.8538461538461"/>
      <point x="625.4923076923077" y="942.6"/>
      <point x="646.0" y="942.6" type="qcurve" smooth="yes"/>
      <point x="711.623076923077" y="942.6"/>
      <point x="792.7846153846153" y="870.2"/>
      <point x="792.7846153846153" y="809.5615384615385" type="qcurve" smooth="yes"/>
      <point x="792.7846153846153" y="690.4846153846154"/>
      <point x="473.6" y="227.40769230769232"/>
      <point x="219.55384615384617" y="-8.0" type="qcurve"/>
      <point x="148.64615384615385" y="9.03076923076923" type="line"/>
      <point x="123.33076923076923" y="472.5615384615385" type="line"/>
      <point x="84.22307692307693" y="852.223076923077" type="line"/>
    </contour>
  </outline>
</glyph>
<glyph name="z" format="2">
  <advance width="741"/>
  <unicode hex="007A"/>
  <outline>
    <contour>
      <point x="-112.54615384615383" y="6.0846153846153825" type="line"/>
      <point x="-133.6153846153846" y="33.261538461538464" type="line"/>
      <point x="-42.96923076923076" y="98.33076923076923"/>
      <point x="222.30769230769232" y="378.95384615384614"/>
      <point x="306.60769230769233" y="467.5230769230769" type="qcurve" smooth="yes"/>
      <point x="409.75384615384615" y="576.776923076923"/>
      <point x="533.123076923077" y="716.0153846153846"/>
      <point x="567.7076923076924" y="767.6846153846154" type="qcurve"/>
      <point x="104.13076923076923" y="762.7384615384615" type="line"/>
      <point x="60.86153846153846" y="660.3923076923077" type="line"/>
      <point x="24.769230769230774" y="661.3384615384615" type="line"/>
      <point x="80.82307692307693" y="893.5230769230769" type="line"/>
      <point x="114.43846153846154" y="913.4692307692308" type="line"/>
      <point x="695.8923076923077" y="902.1153846153846" type="line"/>
      <point x="710.6461538461539" y="868.376923076923" type="line"/>
      <point x="636.0" y="791.3"/>
      <point x="445.03076923076924" y="567.2461538461539"/>
      <point x="338.1538461538462" y="453.15384615384613" type="qcurve" smooth="yes"/>
      <point x="258.7153846153846" y="367.44615384615383"/>
      <point x="139.8846153846154" y="237.1"/>
      <point x="103.0" y="190.13076923076923" type="qcurve"/>
      <point x="558.2" y="110.2923076923077" type="line"/>
      <point x="634.1153846153846" y="238.23846153846154" type="line"/>
      <point x="653.1" y="228.37692307692308" type="line"/>
      <point x="573.0461538461539" y="-0.5384615384615383" type="line"/>
      <point x="536.0461538461539" y="-19.53846153846154" type="line"/>
      <point x="8.484615384615381" y="92.46153846153847" type="line"/>
    </contour>
  </outline>
</glyph>
<glyph name="braceright" format="2">
  <advance width="693"/>
  <unicode hex="007D"/>
  <outline>
    <contour>
      <point x="-135.77692307692308" y="-129.19230769230768" type="qcurve"/>
      <point x="-125.13076923076923" y="-95.72307692307692" type="line"/>
      <point x="-81.7" y="-101.50769230769231"/>
      <point x="-50.05384615384615" y="-104.34615384615387"/>
      <point x="-1.0538461538461539" y="-103.40000000000003" type="qcurve" smooth="yes"/>
      <point x="80.94615384615385" y="-101.50769230769231"/>
      <point x="195.0" y="-3.6153846153846416"/>
      <point x="213.05384615384617" y="94.38461538461536" type="qcurve" smooth="yes"/>
      <point x="229.26923076923077" y="184.0846153846154"/>
      <point x="198.83846153846153" y="469.0"/>
      <point x="213.05384615384617" y="539.1846153846154" type="qcurve" smooth="yes"/>
      <point x="231.7846153846154" y="632.8384615384615"/>
      <point x="310.7307692307692" y="724.1538461538462"/>
      <point x="376.0" y="743.0153846153846" type="qcurve"/>
      <point x="315.75384615384615" y="771.5846153846154"/>
      <point x="261.5076923076923" y="858.7923076923076"/>
      <point x="310.7846153846154" y="946.2230769230769" type="qcurve" smooth="yes"/>
      <point x="347.7076923076923" y="1012.623076923077"/>
      <point x="466.32307692307694" y="1201.8615384615384"/>
      <point x="480.5923076923077" y="1281.1538461538462" type="qcurve" smooth="yes"/>
      <point x="498.7" y="1379.1538461538462"/>
      <point x="413.4" y="1472.2076923076922"/>
      <point x="331.4" y="1472.2076923076922" type="qcurve" smooth="yes"/>
      <point x="282.4" y="1472.2076923076922"/>
      <point x="204.26153846153846" y="1465.5846153846153"/>
      <point x="166.4" y="1463.5846153846153" type="qcurve"/>
      <point x="173.31538461538463" y="1499.053846153846" type="line"/>
      <point x="211.26153846153846" y="1502.053846153846"/>
      <point x="294.31538461538463" y="1510.0"/>
      <point x="365.31538461538463" y="1510.0" type="qcurve" smooth="yes"/>
      <point x="521.3153846153846" y="1510.0"/>
      <point x="667.8307692307692" y="1370.4384615384615"/>
      <point x="631.1538461538462" y="1211.4384615384615" type="qcurve" smooth="yes"/>
      <point x="606.2615384615385" y="1102.9"/>
      <point x="438.83076923076925" y="896.4461538461538"/>
      <point x="423.4" y="806.8307692307692" type="qcurve"/>
      <point x="423.23846153846154" y="773.0384615384615" type="line"/>
      <point x="628.723076923077" y="766.0923076923077" type="line"/>
      <point x="620.0230769230769" y="729.0538461538462" type="line"/>
      <point x="514.7615384615384" y="727.0" type="line" smooth="yes"/>
      <point x="457.11538461538464" y="726.0"/>
      <point x="388.5692307692308" y="693.4153846153846"/>
      <point x="378.16153846153844" y="638.3846153846154" type="qcurve" smooth="yes"/>
      <point x="356.4" y="522.6461538461539"/>
      <point x="407.6461538461538" y="224.38461538461536"/>
      <point x="382.75384615384615" y="106.38461538461536" type="qcurve" smooth="yes"/>
      <point x="355.53846153846155" y="-22.33846153846156"/>
      <point x="162.6769230769231" y="-142.0846153846154"/>
      <point x="13.299999999999999" y="-142.0846153846154" type="qcurve" smooth="yes"/>
      <point x="-48.238461538461536" y="-142.0846153846154"/>
      <point x="-98.83076923076923" y="-135.97692307692307"/>
    </contour>
  </outline>
</glyph>
<glyph name="copyright" format="2">
  <advance width="1783"/>
  <unicode hex="00A9"/>
  <outline>
    <contour>
      <point x="493.54615384615386" y="643.0769230769231" type="qcurve" smooth="yes"/>
      <point x="493.54615384615386" y="845.1769230769231"/>
      <point x="729.9461538461538" y="1123.8461538461538"/>
      <point x="910.5307692307692" y="1123.8461538461538" type="qcurve" smooth="yes"/>
      <point x="972.5846153846154" y="1123.8461538461538"/>
      <point x="1077.5" y="1094.6307692307691"/>
      <point x="1116.0153846153846" y="1070.6307692307691" type="qcurve"/>
      <point x="1172.6153846153845" y="1125.576923076923" type="line"/>
      <point x="1199.1153846153845" y="1124.0153846153846" type="line"/>
      <point x="1199.976923076923" y="809.3692307692307" type="line"/>
      <point x="1170.1" y="808.4538461538461" type="line"/>
      <point x="1124.8846153846155" y="926.2769230769231" type="line"/>
      <point x="1087.6153846153845" y="1017.0461538461539"/>
      <point x="978.9384615384615" y="1091.376923076923"/>
      <point x="914.3692307692307" y="1091.376923076923" type="qcurve" smooth="yes"/>
      <point x="793.3461538461538" y="1091.376923076923"/>
      <point x="655.5692307692308" y="916.9230769230769"/>
      <point x="655.5692307692308" y="687.9153846153846" type="qcurve" smooth="yes"/>
      <point x="655.5692307692308" y="501.05384615384617"/>
      <point x="825.2923076923078" y="318.65384615384613"/>
      <point x="941.1538461538462" y="318.65384615384613" type="qcurve" smooth="yes"/>
      <point x="1061.1" y="318.65384615384613"/>
      <point x="1193.9538461538461" y="398.94615384615383"/>
      <point x="1236.2769230769231" y="466.3538461538462" type="qcurve"/>
      <point x="1256.5384615384614" y="450.0153846153846" type="line"/>
      <point x="1228.6" y="368.36923076923074"/>
      <point x="1042.6384615384616" y="231.23076923076923"/>
      <point x="916.5538461538462" y="231.23076923076923" type="qcurve" smooth="yes"/>
      <point x="731.9153846153846" y="231.23076923076923"/>
      <point x="493.54615384615386" y="469.9"/>
    </contour>
    <contour>
      <point x="53.11538461538461" y="679.3230769230769" type="qcurve" smooth="yes"/>
      <point x="53.11538461538461" y="1036.4"/>
      <point x="537.2153846153847" y="1518.9076923076923"/>
      <point x="895.8" y="1518.9076923076923" type="qcurve" smooth="yes"/>
      <point x="1253.3307692307692" y="1518.9076923076923"/>
      <point x="1734.4846153846154" y="1061.4538461538461"/>
      <point x="1734.4846153846154" y="700.3230769230769" type="qcurve" smooth="yes"/>
      <point x="1734.4846153846154" y="304.0846153846154"/>
      <point x="1260.3307692307692" y="-198.47692307692307"/>
      <point x="906.8538461538461" y="-198.47692307692307" type="qcurve" smooth="yes"/>
      <point x="542.323076923077" y="-198.47692307692307"/>
      <point x="53.11538461538461" y="292.0846153846154"/>
    </contour>
    <contour>
      <point x="101.44615384615386" y="675.376923076923" type="qcurve" smooth="yes"/>
      <point x="101.44615384615386" y="321.2153846153846"/>
      <point x="585.6923076923077" y="-152.35384615384615"/>
      <point x="921.0153846153846" y="-152.35384615384615" type="qcurve" smooth="yes"/>
      <point x="1248.2307692307693" y="-152.35384615384615"/>
      <point x="1680.476923076923" y="346.2692307692308"/>
      <point x="1680.476923076923" y="693.3230769230769" type="qcurve" smooth="yes"/>
      <point x="1680.476923076923" y="1009.4307692307692"/>
      <point x="1224.2307692307693" y="1469.0"/>
      <point x="872.9076923076923" y="1469.0" type="qcurve" smooth="yes"/>
      <point x="539.6923076923077" y="1469.0"/>
      <point x="101.44615384615386" y="1000.4307692307692"/>
    </contour>
  </outline>
</glyph>
<glyph name="divide" format="2">
  <advance width="887"/>
  <unicode hex="00F7"/>
  <outline>
    <contour>
      <point x="40.392307692307696" y="574.9230769230769" type="line"/>
      <point x="40.392307692307696" y="689.0769230769231" type="line"/>
      <point x="790.8538461538461" y="689.0769230769231" type="line"/>
      <point x="790.8538461538461" y="574.9230769230769" type="line"/>
    </contour>
    <contour>
      <point x="307.38461538461536" y="357.1461538461538" type="qcurve" smooth="yes"/>
      <point x="307.38461538461536" y="400.63076923076926"/>
      <point x="368.0846153846154" y="465.38461538461536"/>
      <point x="415.62307692307695" y="465.38461538461536" type="qcurve" smooth="yes"/>
      <point x="463.1615384615385" y="465.38461538461536"/>
      <point x="523.8615384615384" y="400.63076923076926"/>
      <point x="523.8615384615384" y="357.1461538461538" type="qcurve" smooth="yes"/>
      <point x="523.8615384615384" y="315.60769230769233"/>
      <point x="463.1615384615385" y="250.85384615384615"/>
      <point x="415.62307692307695" y="250.85384615384615" type="qcurve" smooth="yes"/>
      <point x="368.0846153846154" y="250.85384615384615"/>
      <point x="307.38461538461536" y="315.60769230769233"/>
    </contour>
    <contour>
      <point x="307.38461538461536" y="907.8538461538461" type="qcurve" smooth="yes"/>
      <point x="307.38461538461536" y="950.3923076923077"/>
      <point x="368.0846153846154" y="1015.1461538461539"/>
      <point x="415.62307692307695" y="1015.1461538461539" type="qcurve" smooth="yes"/>
      <point x="463.1615384615385" y="1015.1461538461539"/>
      <point x="523.8615384615384" y="950.3923076923077"/>
      <point x="523.8615384615384" y="907.8538461538461" type="qcurve" smooth="yes"/>
      <point x="523.8615384615384" y="865.3692307692307"/>
      <point x="463.1615384615385" y="800.6153846153846"/>
      <point x="415.62307692307695" y="800.6153846153846" type="qcurve" smooth="yes"/>
      <point x="368.0846153846154" y="800.6153846153846"/>
      <point x="307.38461538461536" y="865.3692307692307"/>
    </contour>
  </outline>
</glyph>
<glyph name="circumflex" format="2">
  <advance width="903"/>
  <unicode hex="02C6"/>
  <outline>
    <contour>
      <point x="600.1076923076923" y="1367.1846153846154" type="qcurve" smooth="yes"/>
      <point x="630.323076923077" y="1366.2384615384615"/>
      <point x="648.4" y="1324.7769230769231"/>
      <point x="661.9923076923077" y="1281.8846153846155" type="qcurve" smooth="yes"/>
      <point x="739.8153846153846" y="1052.7" type="line"/>
      <point x="718.4230769230769" y="1035.9" type="line"/>
      <point x="569.1076923076923" y="1240.4923076923078" type="line"/>
      <point x="304.24615384615385" y="1047.253846153846" type="line"/>
      <point x="279.1461538461539" y="1063.1615384615384" type="line"/>
      <point x="488.3538461538462" y="1286.6153846153845" type="line" smooth="yes"/>
      <point x="535.5153846153846" y="1337.5615384615385"/>
      <point x="569.8923076923077" y="1369.076923076923"/>
    </contour>
  </outline>
</glyph>
<glyph name="horizontalbar" format="2">
  <advance width="770"/>
  <unicode hex="2015"/>
  <outline>
    <contour>
      <point x="385.4230769230769" y="743.8615384615384" type="line"/>
      <point x="63.815384615384616" y="743.8615384615384" type="line"/>
      <point x="83.0" y="789.5692307692308" type="line"/>
      <point x="395.9230769230769" y="789.5692307692308" type="line"/>
      <point x="707.9230769230769" y="789.5692307692308" type="line"/>
      <point x="699.7384615384615" y="743.8615384615384" type="line"/>
    </contour>
  </outline>
</glyph>
<glyph name="quoteleft" format="2">
  <advance width="531"/>
  <unicode hex="2018"/>
  <outline>
    <contour>
      <point x="526.8307692307692" y="1524.2230769230769" type="line"/>
      <point x="458.2846153846154" y="1480.923076923077"/>
      <point x="352.8" y="1386.576923076923"/>
      <point x="328.0692307692308" y="1332.3615384615384" type="qcurve"/>
      <point x="402.6923076923077" y="1334.253846153846"/>
      <point x="483.4230769230769" y="1270.7692307692307"/>
      <point x="483.4230769230769" y="1211.9307692307693" type="qcurve" smooth="yes"/>
      <point x="483.4230769230769" y="1167.3384615384616"/>
      <point x="418.2923076923077" y="1099.5846153846153"/>
      <point x="365.8615384615385" y="1099.5846153846153" type="qcurve" smooth="yes"/>
      <point x="314.5923076923077" y="1099.5846153846153"/>
      <point x="237.1076923076923" y="1178.7153846153847"/>
      <point x="237.1076923076923" y="1253.9846153846154" type="qcurve" smooth="yes"/>
      <point x="237.1076923076923" y="1347.3076923076924"/>
      <point x="418.5153846153846" y="1505.4615384615386"/>
      <point x="518.4076923076923" y="1541.753846153846" type="qcurve"/>
    </contour>
  </outline>
</glyph>
<glyph name="bullet" format="2">
  <advance width="784"/>
  <unicode hex="2022"/>
  <outline>
    <contour>
      <point x="113.74615384615385" y="744.6153846153846" type="qcurve" smooth="yes"/>
      <point x="113.74615384615385" y="860.6153846153846"/>
      <point x="275.74615384615385" y="1032.6153846153845"/>
      <point x="403.74615384615385" y="1032.6153846153845" type="qcurve" smooth="yes"/>
      <point x="527.7461538461539" y="1032.6153846153845"/>
      <point x="689.7461538461539" y="860.6153846153846"/>
      <point x="689.7461538461539" y="744.6153846153846" type="qcurve" smooth="yes"/>
      <point x="689.7461538461539" y="630.6153846153846"/>
      <point x="527.7461538461539" y="458.61538461538464"/>
      <point x="403.74615384615385" y="458.61538461538464" type="qcurve" smooth="yes"/>
      <point x="275.74615384615385" y="458.61538461538464"/>
      <point x="113.74615384615385" y="630.6153846153846"/>
    </contour>
  </outline>
</glyph>
<glyph name="guarani" format="2">
  <advance width="1243"/>
  <unicode hex="20B2"/>
  <outline>
    <contour>
      <point x="342.24615384615385" y="-150.3846153846154" type="line"/>
      <point x="420.0615384615385" y="42.47692307692308" type="line"/>
      <point x="421.03076923076924" y="42.20769230769231" type="line"/>
      <point x="680.0153846153846" y="787.7384615384615" type="line"/>
      <point x="717.0538461538462" y="769.8846153846154" type="line"/>
      <point x="461.60769230769233" y="26.56153846153846" type="line"/>
      <point x="462.6846153846154" y="26.346153846153847" type="line"/>
      <point x="394.13846153846157" y="-154.4153846153846" type="line"/>
    </contour>
    <contour>
      <point x="954.5230769230769" y="1593.9615384615386" type="line"/>
      <point x="1001.5769230769231" y="1593.0153846153846" type="line"/>
      <point x="949.1461538461539" y="1444.8153846153846" type="line"/>
      <point x="948.0153846153846" y="1445.0307692307692" type="line"/>
      <point x="716.1076923076923" y="770.8307692307692" type="line"/>
      <point x="680.0153846153846" y="787.7384615384615" type="line"/>
      <point x="906.5461538461539" y="1461.623076923077" type="line"/>
      <point x="905.4692307692308" y="1461.8923076923077" type="line"/>
    </contour>
    <contour>
      <point x="129.02307692307693" y="749.1153846153846" type="qcurve" smooth="yes"/>
      <point x="190.47692307692307" y="1113.9076923076923"/>
      <point x="561.5615384615385" y="1503.2076923076922"/>
      <point x="817.7461538461539" y="1501.1615384615384" type="qcurve" smooth="yes"/>
      <point x="985.8538461538461" y="1499.923076923077"/>
      <point x="1174.6384615384616" y="1299.1153846153845"/>
      <point x="1159.8846153846155" y="1061.1384615384616" type="qcurve"/>
      <point x="1082.0307692307692" y="1061.1384615384616" type="line"/>
      <point x="1105.9538461538461" y="1286.0153846153846"/>
      <point x="953.8076923076924" y="1442.9615384615386"/>
      <point x="816.1076923076923" y="1444.3615384615384" type="qcurve" smooth="yes"/>
      <point x="618.8153846153846" y="1446.4076923076923"/>
      <point x="373.15384615384613" y="1156.676923076923"/>
      <point x="306.5615384615385" y="770.0923076923077" type="qcurve" smooth="yes"/>
      <point x="240.18461538461537" y="382.63846153846157"/>
      <point x="379.18461538461537" y="30.238461538461536"/>
      <point x="593.8692307692307" y="28.946153846153848" type="qcurve" smooth="yes"/>
      <point x="666.3692307692307" y="27.976923076923086"/>
      <point x="805.8923076923077" y="76.54615384615384"/>
      <point x="867.1" y="120.0" type="qcurve"/>
      <point x="968.4846153846154" y="617.3538461538461" type="line"/>
      <point x="853.5461538461539" y="650.8692307692307" type="line"/>
      <point x="857.5692307692308" y="679.9615384615385" type="line"/>
      <point x="1121.7769230769231" y="679.9615384615385" type="line"/>
      <point x="1043.7" y="224.57692307692307" type="line"/>
      <point x="1032.7615384615385" y="213.5" type="line"/>
      <point x="952.5" y="125.11538461538461"/>
      <point x="699.3846153846154" y="-12.676923076923076"/>
      <point x="546.7615384615384" y="-11.546153846153846" type="qcurve" smooth="yes"/>
      <point x="310.16923076923075" y="-9.661538461538463"/>
      <point x="71.46153846153847" y="406.62307692307695"/>
    </contour>
  </outline>
</glyph>
<glyph name="rupeeIndian" format="2">
  <advance width="1039"/>
  <unicode hex="20B9"/>
  <outline>
    <contour>
      <point x="141.30769230769232" y="774.4769230769231" type="qcurve"/>
      <point x="147.5846153846154" y="814.623076923077" type="line"/>
      <point x="177.23076923076923" y="826.8615384615384" type="line"/>
      <point x="364.89230769230767" y="827.0230769230769" type="line" smooth="yes"/>
      <point x="489.83076923076925" y="827.1307692307693"/>
      <point x="657.0538461538462" y="1002.9538461538461"/>
      <point x="691.5692307692308" y="1170.3384615384616" type="qcurve" smooth="yes"/>
      <point x="723.0307692307692" y="1321.3461538461538"/>
      <point x="634.7076923076924" y="1458.123076923077"/>
      <point x="528.6846153846154" y="1458.123076923077" type="qcurve" smooth="yes"/>
      <point x="494.7" y="1458.123076923077"/>
      <point x="263.7" y="1457.5846153846153"/>
      <point x="159.84615384615384" y="1457.1538461538462" type="qcurve"/>
      <point x="178.26923076923077" y="1500.753846153846" type="line"/>
      <point x="352.6923076923077" y="1499.946153846154"/>
      <point x="490.8461538461538" y="1499.3"/>
      <point x="658.1769230769231" y="1499.1923076923076" type="qcurve"/>
      <point x="1135.753846153846" y="1500.9153846153847" type="line"/>
      <point x="1118.4615384615386" y="1456.2384615384615" type="line"/>
      <point x="1012.4307692307692" y="1456.5076923076922"/>
      <point x="827.0153846153846" y="1456.9923076923078"/>
      <point x="752.823076923077" y="1457.2076923076922" type="qcurve"/>
      <point x="810.6923076923077" y="1425.2384615384615"/>
      <point x="879.2692307692307" y="1263.8"/>
      <point x="851.9153846153846" y="1146.0615384615385" type="qcurve" smooth="yes"/>
      <point x="823.5923076923077" y="996.9307692307692"/>
      <point x="574.4923076923077" y="788.0384615384615"/>
      <point x="423.3" y="788.0384615384615" type="qcurve" smooth="yes"/>
      <point x="364.1923076923077" y="788.0384615384615"/>
      <point x="186.63076923076923" y="783.3923076923077"/>
    </contour>
    <contour>
      <point x="382.53846153846155" y="797.3615384615384" type="line"/>
      <point x="535.2153846153847" y="832.7076923076924" type="line"/>
      <point x="558.623076923077" y="708.0" type="line" smooth="yes"/>
      <point x="630.9307692307692" y="323.82307692307694"/>
      <point x="860.8692307692307" y="43.36153846153846"/>
      <point x="953.2538461538461" y="27.5" type="qcurve"/>
      <point x="937.5" y="-1.4846153846153847" type="line"/>
      <point x="877.5846153846154" y="-1.4846153846153847" type="line" smooth="yes"/>
      <point x="717.3230769230769" y="-1.4846153846153847"/>
      <point x="459.1692307692308" y="309.2692307692308"/>
      <point x="403.83846153846156" y="662.4846153846154" type="qcurve" smooth="yes"/>
    </contour>
    <contour>
      <point x="134.15384615384616" y="1119.6153846153845" type="line"/>
      <point x="146.23076923076923" y="1163.053846153846" type="line"/>
      <point x="728.2076923076924" y="1161.7615384615385" type="line"/>
      <point x="728.2076923076924" y="1162.5692307692307" type="line"/>
      <point x="1076.923076923077" y="1163.1076923076923" type="line"/>
      <point x="1055.8461538461538" y="1119.5615384615385" type="line"/>
      <point x="718.0769230769231" y="1119.0230769230768" type="line"/>
      <point x="718.0769230769231" y="1119.7769230769231" type="line"/>
    </contour>
  </outline>
</glyph>
<glyph name="trademark" format="2">
  <advance width="1592"/>
  <unicode hex="2122"/>
  <outline>
    <contour>
      <point x="235.66153846153847" y="1261.2307692307693" type="line"/>
      <point x="285.87692307692305" y="1500.0" type="line"/>
      <point x="817.6" y="1500.0" type="line"/>
      <point x="767.3846153846154" y="1261.2307692307693" type="line"/>
      <point x="725.9923076923077" y="1261.2307692307693" type="line"/>
      <point x="724.0461538461539" y="1465.423076923077" type="line"/>
      <point x="618.4384615384615" y="1465.423076923077" type="line"/>
      <point x="600.5769230769231" y="1448.2615384615385" type="line"/>
      <point x="541.0076923076923" y="1189.5923076923077" type="line"/>
      <point x="489.9230769230769" y="927.0230769230769" type="line"/>
      <point x="580.7538461538461" y="901.4307692307692" type="line"/>
      <point x="575.1615384615385" y="875.9846153846154" type="line"/>
      <point x="254.77692307692308" y="875.9846153846154" type="line"/>
      <point x="260.36923076923074" y="901.4307692307692" type="line"/>
      <point x="375.55384615384617" y="927.0230769230769" type="line"/>
      <point x="431.33846153846156" y="1190.2923076923078" type="line"/>
      <point x="481.2846153846154" y="1448.2615384615385" type="line"/>
      <point x="478.5846153846154" y="1465.423076923077" type="line"/>
      <point x="365.9230769230769" y="1465.423076923077" type="line"/>
      <point x="277.05384615384617" y="1261.2307692307693" type="line"/>
    </contour>
    <contour>
      <point x="707.4076923076923" y="877.0384615384615" type="line"/>
      <point x="712.0" y="900.4307692307692" type="line"/>
      <point x="817.0769230769231" y="925.0230769230769" type="line"/>
      <point x="868.5923076923077" y="1165.753846153846" type="line"/>
      <point x="926.2153846153847" y="1442.2076923076922" type="line"/>
      <point x="840.7076923076924" y="1471.476923076923" type="line"/>
      <point x="846.4615384615385" y="1500.0" type="line"/>
      <point x="1068.576923076923" y="1500.0" type="line"/>
      <point x="1125.9153846153847" y="1003.1923076923076" type="line"/>
      <point x="1397.576923076923" y="1500.0" type="line"/>
      <point x="1626.476923076923" y="1500.0" type="line"/>
      <point x="1620.7230769230769" y="1471.476923076923" type="line"/>
      <point x="1523.753846153846" y="1442.2076923076922" type="line"/>
      <point x="1471.5923076923077" y="1202.5461538461539" type="line"/>
      <point x="1414.6153846153848" y="923.0230769230769" type="line"/>
      <point x="1499.5846153846155" y="898.4307692307692" type="line"/>
      <point x="1494.9384615384615" y="875.9846153846154" type="line"/>
      <point x="1207.9538461538461" y="875.9846153846154" type="line"/>
      <point x="1212.6" y="898.4307692307692" type="line"/>
      <point x="1301.4615384615386" y="923.0230769230769" type="line"/>
      <point x="1360.5461538461539" y="1202.5461538461539" type="line"/>
      <point x="1411.3307692307692" y="1444.753846153846" type="line"/>
      <point x="1100.2307692307693" y="868.9307692307692" type="line"/>
      <point x="1036.8923076923077" y="868.9307692307692" type="line"/>
      <point x="961.9846153846154" y="1426.6384615384616" type="line"/>
      <point x="905.1461538461539" y="1165.753846153846" type="line"/>
      <point x="855.7384615384615" y="925.0230769230769" type="line"/>
      <point x="942.1923076923076" y="900.4307692307692" type="line"/>
      <point x="937.6" y="877.0384615384615" type="line"/>
    </contour>
  </outline>
</glyph>
<glyph name="minus" format="2">
  <advance width="887"/>
  <unicode hex="2212"/>
  <outline>
    <contour>
      <point x="31.876923076923077" y="574.9230769230769" type="line"/>
      <point x="31.876923076923077" y="689.0769230769231" type="line"/>
      <point x="800.3153846153846" y="689.0769230769231" type="line"/>
      <point x="800.3153846153846" y="574.9230769230769" type="line"/>
    </contour>
  </outline>
</glyph>
<glyph name="rightanglebracket" format="2">
  <advance width="983"/>
  <unicode hex="27E9"/>
  <outline>
    <contour>
      <point x="-136.84615384615384" y="-177.0" type="line"/>
      <point x="-167.8923076923077" y="-134.95384615384614" type="line"/>
      <point x="714.1538461538462" y="631.0" type="line"/>
      <point x="152.0076923076923" y="1480.7692307692307" type="line"/>
      <point x="199.15384615384616" y="1518.0" type="line"/>
      <point x="885.1538461538462" y="652.7692307692307" type="line"/>
      <point x="885.1538461538462" y="606.2307692307693" type="line"/>
    </contour>
  </outline>
</glyph>
<glyph name="caroncomb.alt" format="2">
  <advance width="903"/>
  <outline>
    <contour>
      <point x="436.38461538461536" y="1030.5307692307692" type="line"/>
      <point x="558.6769230769231" y="1359.5307692307692" type="line" smooth="yes"/>
      <point x="589.6769230769231" y="1442.7769230769231"/>
      <point x="634.5923076923077" y="1492.3384615384616"/>
      <point x="663.2384615384615" y="1492.3384615384616" type="qcurve" smooth="yes"/>
      <point x="688.1" y="1492.3384615384616"/>
      <point x="717.8538461538461" y="1461.5307692307692"/>
      <point x="717.8538461538461" y="1435.0461538461539" type="qcurve" smooth="yes"/>
      <point x="717.8538461538461" y="1409.5076923076922"/>
      <point x="682.4230769230769" y="1351.376923076923"/>
      <point x="653.2615384615385" y="1307.376923076923" type="qcurve" smooth="yes"/>
      <point x="465.3461538461538" y="1018.6461538461539" type="line"/>
    </contour>
  </outline>
</glyph>
<glyph name="dieresisbelowcomb" format="2">
  <advance width="903"/>
  <outline>
    <contour>
      <point x="364.0" y="-255.69230769230768" type="qcurve" smooth="yes"/>
      <point x="364.0" y="-211.1"/>
      <point x="421.1615384615385" y="-154.93846153846152"/>
      <point x="466.75384615384615" y="-154.93846153846152" type="qcurve" smooth="yes"/>
      <point x="512.1846153846154" y="-154.93846153846152"/>
      <point x="569.5076923076923" y="-211.31538461538463"/>
      <point x="569.5076923076923" y="-255.69230769230768" type="qcurve" smooth="yes"/>
      <point x="569.5076923076923" y="-299.2846153846154"/>
      <point x="512.4" y="-355.44615384615383"/>
      <point x="466.75384615384615" y="-355.44615384615383" type="qcurve" smooth="yes"/>
      <point x="421.32307692307694" y="-355.44615384615383"/>
      <point x="364.0" y="-299.12307692307695"/>
    </contour>
    <contour>
      <point x="19.692307692307693" y="-255.69230769230768" type="qcurve" smooth="yes"/>
      <point x="19.692307692307693" y="-211.1"/>
      <point x="76.85384615384615" y="-154.93846153846152"/>
      <point x="122.44615384615385" y="-154.93846153846152" type="qcurve" smooth="yes"/>
      <point x="167.87692307692308" y="-154.93846153846152"/>
      <point x="225.2" y="-211.31538461538463"/>
      <point x="225.2" y="-255.69230769230768" type="qcurve" smooth="yes"/>
      <point x="225.2" y="-299.2846153846154"/>
      <point x="168.0923076923077" y="-355.44615384615383"/>
      <point x="122.44615384615385" y="-355.44615384615383" type="qcurve" smooth="yes"/>
      <point x="77.01538461538462" y="-355.44615384615383"/>
      <point x="19.692307692307693" y="-299.12307692307695"/>
    </contour>
  </outline>
</glyph>
<glyph name="dieresiscombstack.case" format="2">
  <advance width="903"/>
  <outline>
    <contour>
      <point x="391.5615384615385" y="1718.6692307692308" type="qcurve" smooth="yes"/>
      <point x="391.5615384615385" y="1763.0461538461539"/>
      <point x="449.1" y="1819.5846153846153"/>
      <point x="494.4230769230769" y="1819.5846153846153" type="qcurve" smooth="yes"/>
      <point x="539.8" y="1819.5846153846153"/>
      <point x="597.3384615384615" y="1763.0461538461539"/>
      <point x="597.3384615384615" y="1718.6692307692308" type="qcurve" smooth="yes"/>
      <point x="597.3384615384615" y="1675.2923076923078"/>
      <point x="539.8" y="1618.8076923076924"/>
      <point x="494.4230769230769" y="1618.8076923076924" type="qcurve" smooth="yes"/>
      <point x="449.1" y="1618.8076923076924"/>
      <point x="391.5615384615385" y="1675.2923076923078"/>
    </contour>
    <contour>
      <point x="738.0230769230769" y="1718.6692307692308" type="qcurve" smooth="yes"/>
      <point x="738.0230769230769" y="1763.0461538461539"/>
      <point x="795.5615384615385" y="1819.5846153846153"/>
      <point x="840.8846153846154" y="1819.5846153846153" type="qcurve" smooth="yes"/>
      <point x="886.2615384615385" y="1819.5846153846153"/>
      <point x="943.8" y="1763.0461538461539"/>
      <point x="943.8" y="1718.6692307692308" type="qcurve" smooth="yes"/>
      <point x="943.8" y="1675.2923076923078"/>
      <point x="886.2615384615385" y="1618.8076923076924"/>
      <point x="840.8846153846154" y="1618.8076923076924" type="qcurve" smooth="yes"/>
      <point x="795.5615384615385" y="1618.8076923076924"/>
      <point x="738.0230769230769" y="1675.2923076923078"/>
    </contour>
  </outline>
</glyph>
<glyph name="dollar.rvrn" format="2">
  <advance width="930"/>
  <outline>
    <contour>
      <point x="-37.22307692307692" y="165.18461538461537" type="qcurve"/>
      <point x="12.146153846153851" y="226.86923076923077" type="line"/>
      <point x="42.43846153846154" y="167.16923076923078"/>
      <point x="215.96153846153848" y="43.14615384615385"/>
      <point x="340.63846153846157" y="43.14615384615385" type="qcurve" smooth="yes"/>
      <point x="499.0769230769231" y="43.14615384615385"/>
      <point x="671.8384615384615" y="222.15384615384616"/>
      <point x="669.9461538461538" y="382.10769230769233" type="qcurve" smooth="yes"/>
      <point x="669.0" y="479.7846153846154"/>
      <point x="532.1846153846154" y="659.4615384615385"/>
      <point x="412.83846153846156" y="748.8384615384615" type="qcurve" smooth="yes"/>
      <point x="307.86923076923074" y="828.0"/>
      <point x="137.81538461538463" y="1033.0846153846153"/>
      <point x="137.81538461538463" y="1165.7307692307693" type="qcurve" smooth="yes"/>
      <point x="137.81538461538463" y="1327.623076923077"/>
      <point x="349.3461538461538" y="1515.2692307692307"/>
      <point x="522.6461538461539" y="1515.2692307692307" type="qcurve" smooth="yes"/>
      <point x="665.223076923077" y="1515.2692307692307"/>
      <point x="835.0461538461539" y="1410.7230769230769"/>
      <point x="871.7923076923078" y="1339.5076923076922" type="qcurve"/>
      <point x="820.5846153846154" y="1306.0692307692307" type="line"/>
      <point x="785.5615384615385" y="1369.6923076923076"/>
      <point x="630.1846153846154" y="1470.9076923076923"/>
      <point x="513.1" y="1470.9076923076923" type="qcurve" smooth="yes"/>
      <point x="398.20769230769235" y="1470.9076923076923"/>
      <point x="267.13076923076926" y="1352.9076923076923"/>
      <point x="267.13076923076926" y="1256.2307692307693" type="qcurve" smooth="yes"/>
      <point x="267.13076923076926" y="1157.6615384615384"/>
      <point x="407.67692307692306" y="953.0769230769231"/>
      <point x="528.0769230769231" y="863.1615384615385" type="qcurve" smooth="yes"/>
      <point x="651.0461538461539" y="771.5153846153846"/>
      <point x="814.8615384615384" y="564.6769230769231"/>
      <point x="814.8076923076924" y="427.03076923076924" type="qcurve" smooth="yes"/>
      <point x="814.7538461538461" y="236.7846153846154"/>
      <point x="521.7153846153847" y="-1.6461538461538474"/>
      <point x="327.2846153846154" y="-1.6461538461538474" type="qcurve" smooth="yes"/>
      <point x="199.2153846153846" y="-1.6461538461538474"/>
      <point x="7.692307692307693" y="96.18461538461538"/>
    </contour>
    <contour>
      <point x="265.9923076923077" y="-156.8846153846154" type="line"/>
      <point x="300.6923076923077" y="20.77692307692308" type="line"/>
      <point x="303.6615384615385" y="20.77692307692308" type="line"/>
      <point x="344.4" y="20.77692307692308" type="line"/>
      <point x="349.36923076923074" y="20.77692307692308" type="line"/>
      <point x="317.1" y="-141.8923076923077" type="line"/>
    </contour>
    <contour>
      <point x="585.7153846153847" y="1590.5615384615385" type="line"/>
      <point x="635.7692307692307" y="1601.176923076923" type="line"/>
      <point x="613.9076923076923" y="1488.7076923076922" type="line"/>
      <point x="608.9923076923077" y="1488.7076923076922" type="line"/>
      <point x="568.2538461538461" y="1488.7076923076922" type="line"/>
      <point x="565.2307692307693" y="1488.7076923076922" type="line"/>
    </contour>
  </outline>
</glyph>
<glyph name="dotaccentcombstack.case" format="2">
  <advance width="903"/>
  <outline>
    <contour>
      <point x="579.0153846153846" y="1724.3692307692309" type="qcurve" smooth="yes"/>
      <point x="579.0153846153846" y="1770.746153846154"/>
      <point x="637.7153846153847" y="1829.3384615384616"/>
      <point x="686.0923076923077" y="1829.3384615384616" type="qcurve" smooth="yes"/>
      <point x="735.4153846153846" y="1829.3384615384616"/>
      <point x="793.1692307692308" y="1771.6923076923076"/>
      <point x="793.1692307692308" y="1724.3692307692309" type="qcurve" smooth="yes"/>
      <point x="793.1692307692308" y="1679.8846153846155"/>
      <point x="738.2538461538461" y="1619.4"/>
      <point x="686.0923076923077" y="1619.4" type="qcurve" smooth="yes"/>
      <point x="637.7153846153847" y="1619.4"/>
      <point x="579.0153846153846" y="1677.9923076923078"/>
    </contour>
  </outline>
</glyph>
<glyph name="dotbelowcomb" format="2">
  <advance width="903"/>
  <outline>
    <contour>
      <point x="173.84615384615387" y="-248.8846153846154" type="qcurve" smooth="yes"/>
      <point x="173.84615384615387" y="-208.07692307692307"/>
      <point x="227.22307692307692" y="-151.86153846153846"/>
      <point x="272.9230769230769" y="-151.86153846153846" type="qcurve" smooth="yes"/>
      <point x="318.4076923076923" y="-151.86153846153846"/>
      <point x="377.67692307692306" y="-210.18461538461537"/>
      <point x="377.67692307692306" y="-254.56153846153848" type="qcurve" smooth="yes"/>
      <point x="377.67692307692306" y="-295.4230769230769"/>
      <point x="323.3538461538462" y="-350.6923076923077"/>
      <point x="277.6538461538462" y="-350.6923076923077" type="qcurve" smooth="yes"/>
      <point x="232.16923076923078" y="-350.6923076923077"/>
      <point x="173.84615384615387" y="-293.31538461538463"/>
    </contour>
  </outline>
</glyph>
<glyph name="eight.lf" format="2">
  <advance width="981"/>
  <outline>
    <contour>
      <point x="-11.084615384615383" y="326.9230769230769" type="qcurve" smooth="yes"/>
      <point x="-11.084615384615383" y="494.9230769230769"/>
      <point x="230.15384615384616" y="726.5923076923077"/>
      <point x="435.61538461538464" y="815.7538461538461" type="qcurve"/>
      <point x="462.9307692307692" y="797.4384615384615" type="line"/>
      <point x="286.9307692307692" y="714.4384615384615"/>
      <point x="133.4" y="458.46153846153845"/>
      <point x="133.4" y="326.46153846153845" type="qcurve" smooth="yes"/>
      <point x="133.4" y="186.72307692307692"/>
      <point x="263.04615384615386" y="23.230769230769234"/>
      <point x="406.45384615384614" y="23.230769230769234" type="qcurve" smooth="yes"/>
      <point x="546.8307692307692" y="23.230769230769234"/>
      <point x="755.1538461538462" y="214.42307692307693"/>
      <point x="755.1538461538462" y="353.9384615384615" type="qcurve" smooth="yes"/>
      <point x="755.1538461538462" y="490.7230769230769"/>
      <point x="586.2384615384616" y="677.8923076923077"/>
      <point x="498.9384615384615" y="752.6538461538462" type="qcurve" smooth="yes"/>
      <point x="389.87692307692305" y="846.3384615384615"/>
      <point x="243.7" y="1019.4692307692308"/>
      <point x="243.7" y="1145.246153846154" type="qcurve" smooth="yes"/>
      <point x="243.7" y="1298.246153846154"/>
      <point x="468.55384615384617" y="1529.3"/>
      <point x="659.5538461538462" y="1529.3" type="qcurve" smooth="yes"/>
      <point x="774.6307692307693" y="1529.3"/>
      <point x="928.1692307692308" y="1397.4615384615386"/>
      <point x="928.1692307692308" y="1291.4615384615386" type="qcurve" smooth="yes"/>
      <point x="928.1692307692308" y="1162.4615384615386"/>
      <point x="753.8461538461538" y="945.6"/>
      <point x="562.8461538461538" y="845.6" type="qcurve"/>
      <point x="544.5076923076923" y="866.9692307692308" type="line"/>
      <point x="703.5615384615385" y="969.7846153846153"/>
      <point x="790.6307692307693" y="1166.4615384615386"/>
      <point x="790.6307692307693" y="1264.4615384615386" type="qcurve" smooth="yes"/>
      <point x="790.6307692307693" y="1352.7615384615385"/>
      <point x="707.2" y="1492.9923076923078"/>
      <point x="616.5769230769231" y="1492.9923076923078" type="qcurve" smooth="yes"/>
      <point x="508.12307692307695" y="1492.9923076923078"/>
      <point x="376.9384615384615" y="1315.823076923077"/>
      <point x="376.9384615384615" y="1191.923076923077" type="qcurve" smooth="yes"/>
      <point x="376.9384615384615" y="1100.923076923077"/>
      <point x="493.2846153846154" y="962.9230769230769"/>
      <point x="600.2846153846153" y="867.0" type="qcurve" smooth="yes"/>
      <point x="698.8230769230769" y="778.6461538461539"/>
      <point x="892.0923076923077" y="558.0769230769231"/>
      <point x="892.0923076923077" y="411.15384615384613" type="qcurve" smooth="yes"/>
      <point x="892.0923076923077" y="240.56153846153848"/>
      <point x="604.6692307692308" y="-10.076923076923077"/>
      <point x="373.4769230769231" y="-10.076923076923077" type="qcurve" smooth="yes"/>
      <point x="187.47692307692307" y="-10.076923076923077"/>
      <point x="-11.084615384615383" y="173.92307692307693"/>
    </contour>
  </outline>
</glyph>
<glyph name="engtail" format="2">
  <advance width="979"/>
  <outline>
    <contour>
      <point x="-107.61538461538461" y="-244.7923076923077" type="qcurve"/>
      <point x="-75.03076923076924" y="-214.26153846153846" type="line"/>
      <point x="-41.03076923076923" y="-255.26153846153846"/>
      <point x="39.86153846153846" y="-288.1"/>
      <point x="80.86153846153846" y="-288.1" type="qcurve" smooth="yes"/>
      <point x="138.8923076923077" y="-288.1"/>
      <point x="219.13846153846154" y="-225.07692307692307"/>
      <point x="235.13846153846154" y="-147.96923076923076" type="qcurve" smooth="yes"/>
      <point x="294.4076923076923" y="142.26923076923077" type="line"/>
      <point x="352.7076923076923" y="190.0" type="line"/>
      <point x="446.37692307692305" y="190.0" type="line"/>
      <point x="386.3" y="-110.7923076923077" type="line" smooth="yes"/>
      <point x="362.5153846153846" y="-228.76923076923077"/>
      <point x="230.19230769230768" y="-358.7923076923077"/>
      <point x="98.1923076923077" y="-358.7923076923077" type="qcurve" smooth="yes"/>
      <point x="20.515384615384615" y="-358.7923076923077"/>
      <point x="-88.61538461538461" y="-285.7923076923077"/>
    </contour>
  </outline>
</glyph>
<glyph name="five.tab" format="2">
  <advance width="896"/>
  <outline>
    <contour>
      <point x="-107" y="187" type="qcurve" smooth="yes"/>
      <point x="-106" y="233"/>
      <point x="-50" y="298"/>
      <point x="-11" y="299" type="qcurve"/>
      <point x="5" y="298" type="line"/>
      <point x="3" y="228" type="line" smooth="yes"/>
      <point x="0" y="139"/>
      <point x="113" y="18"/>
      <point x="248" y="18" type="qcurve" smooth="yes"/>
      <point x="418" y="18"/>
      <point x="633" y="307"/>
      <point x="640" y="532" type="qcurve" smooth="yes"/>
      <point x="648" y="744"/>
      <point x="376" y="894"/>
      <point x="221" y="839" type="qcurve" smooth="yes"/>
      <point x="137" y="807" type="line"/>
      <point x="119" y="835" type="line"/>
      <point x="289" y="1467" type="line"/>
      <point x="322" y="1500" type="line"/>
      <point x="919" y="1500" type="line"/>
      <point x="890" y="1342" type="line"/>
      <point x="299" y="1342" type="line"/>
      <point x="288" y="1331" type="line"/>
      <point x="258" y="1225"/>
      <point x="166" y="913"/>
      <point x="146" y="841" type="qcurve"/>
      <point x="368" y="956" type="line"/>
      <point x="573" y="970"/>
      <point x="810" y="756"/>
      <point x="802" y="538" type="qcurve" smooth="yes"/>
      <point x="794" y="302"/>
      <point x="450" y="-14"/>
      <point x="234" y="-14" type="qcurve" smooth="yes"/>
      <point x="48" y="-14"/>
      <point x="-110" y="107"/>
    </contour>
  </outline>
</glyph>
<glyph name="hungarumlautcomb.case" format="2">
  <advance width="903"/>
  <outline>
    <contour>
      <point x="766.5846153846154" y="1874.423076923077" type="qcurve" smooth="yes"/>
      <point x="766.5846153846154" y="1848.8307692307692"/>
      <point x="743.1076923076923" y="1815.2692307692307"/>
      <point x="722.7076923076924" y="1799.4076923076923" type="qcurve" smooth="yes"/>
      <point x="470.9846153846154" y="1604.3538461538462" type="line"/>
      <point x="448.5076923076923" y="1624.0153846153846" type="line"/>
      <point x="628.7923076923076" y="1884.5076923076922" type="line" smooth="yes"/>
      <point x="645.1384615384616" y="1908.423076923077"/>
      <point x="684.4307692307692" y="1930.6615384615384"/>
      <point x="710.0230769230769" y="1930.6615384615384" type="qcurve" smooth="yes"/>
      <point x="728.0461538461539" y="1930.6615384615384"/>
      <point x="766.5846153846154" y="1898.123076923077"/>
    </contour>
    <contour>
      <point x="1034.5307692307692" y="1874.423076923077" type="qcurve" smooth="yes"/>
      <point x="1034.5307692307692" y="1848.8307692307692"/>
      <point x="1011.0538461538462" y="1815.2692307692307"/>
      <point x="990.6538461538462" y="1799.4076923076923" type="qcurve" smooth="yes"/>
      <point x="738.9307692307692" y="1604.3538461538462" type="line"/>
      <point x="716.4538461538461" y="1624.0153846153846" type="line"/>
      <point x="896.7384615384615" y="1884.5076923076922" type="line" smooth="yes"/>
      <point x="913.0846153846154" y="1908.423076923077"/>
      <point x="952.376923076923" y="1930.6615384615384"/>
      <point x="977.9692307692308" y="1930.6615384615384" type="qcurve" smooth="yes"/>
      <point x="995.9923076923077" y="1930.6615384615384"/>
      <point x="1034.5307692307692" y="1898.123076923077"/>
    </contour>
  </outline>
</glyph>
<glyph name="macronbelowcomb.case" format="2">
  <advance width="903"/>
  <outline>
    <contour>
      <point x="3.3923076923076962" y="-313.26153846153846" type="line"/>
      <point x="23.876923076923077" y="-205.56923076923076" type="line"/>
      <point x="549.6461538461539" y="-205.56923076923076" type="line"/>
      <point x="529.1615384615385" y="-313.26153846153846" type="line"/>
    </contour>
  </outline>
</glyph>
<glyph name="nine.lc" format="2">
  <advance width="1116"/>
  <outline>
    <contour>
      <point x="1026.0" y="545.0" type="qcurve" smooth="yes"/>
      <point x="1024.0" y="251.0"/>
      <point x="537.0" y="-259.0"/>
      <point x="116.0" y="-381.0" type="qcurve"/>
      <point x="102.0" y="-351.0" type="line"/>
      <point x="475.0" y="-232.0"/>
      <point x="870.0" y="267.0"/>
      <point x="870.0" y="566.0" type="qcurve" smooth="yes"/>
      <point x="870.0" y="740.0"/>
      <point x="731.0" y="928.0"/>
      <point x="604.0" y="928.0" type="qcurve" smooth="yes"/>
      <point x="438.0" y="928.0"/>
      <point x="259.0" y="705.0"/>
      <point x="259.0" y="533.0" type="qcurve" smooth="yes"/>
      <point x="259" y="428"/>
      <point x="375.0" y="289.0"/>
      <point x="493.0" y="289.0" type="qcurve" smooth="yes"/>
      <point x="546.0" y="289.0"/>
      <point x="645.0" y="321.0"/>
      <point x="685.0" y="344.0" type="qcurve"/>
      <point x="697.0" y="330.0" type="line"/>
      <point x="660.0" y="297.0"/>
      <point x="513.0" y="207.0"/>
      <point x="426.0" y="207.0" type="qcurve" smooth="yes"/>
      <point x="271.0" y="207.0"/>
      <point x="103" y="382"/>
      <point x="105.0" y="534.0" type="qcurve" smooth="yes"/>
      <point x="107.0" y="703.0"/>
      <point x="389.0" y="969.0"/>
      <point x="614.0" y="969.0" type="qcurve" smooth="yes"/>
      <point x="826.0" y="969.0"/>
      <point x="1028.0" y="729.0"/>
    </contour>
  </outline>
</glyph>
<glyph name="nine.lf" format="2">
  <advance width="1090"/>
  <outline>
    <contour>
      <point x="95.98461538461538" y="-49.02307692307693" type="qcurve"/>
      <point x="88.26153846153846" y="-25.715384615384615" type="line"/>
      <point x="464.9" y="117.75384615384615"/>
      <point x="872.0153846153846" y="655.0"/>
      <point x="876.4230769230769" y="1038.0" type="qcurve" smooth="yes"/>
      <point x="878.1538461538462" y="1198.0"/>
      <point x="761.8076923076923" y="1476.6384615384616"/>
      <point x="599.723076923077" y="1476.6384615384616" type="qcurve" smooth="yes"/>
      <point x="457.7230769230769" y="1476.6384615384616"/>
      <point x="273.04615384615386" y="1216.6846153846154"/>
      <point x="274.9384615384615" y="1029.2846153846153" type="qcurve" smooth="yes"/>
      <point x="275.88461538461536" y="887.8461538461538"/>
      <point x="379.88461538461536" y="711.0"/>
      <point x="493.04615384615386" y="711.0" type="qcurve" smooth="yes"/>
      <point x="545.1" y="711.0"/>
      <point x="634.5846153846154" y="736.3230769230769"/>
      <point x="669.8538461538461" y="773.7307692307693" type="qcurve"/>
      <point x="683.0692307692308" y="756.8230769230769" type="line"/>
      <point x="646.0692307692308" y="709.3615384615384"/>
      <point x="519.1769230769231" y="635.8461538461538"/>
      <point x="444.4769230769231" y="635.8461538461538" type="qcurve" smooth="yes"/>
      <point x="278.4769230769231" y="635.8461538461538"/>
      <point x="101.07692307692308" y="843.8461538461538"/>
      <point x="105.8076923076923" y="1019.876923076923" type="qcurve" smooth="yes"/>
      <point x="111.48461538461538" y="1228.8461538461538"/>
      <point x="416.5923076923077" y="1513.8384615384616"/>
      <point x="642.1307692307693" y="1513.8384615384616" type="qcurve" smooth="yes"/>
      <point x="851.5615384615385" y="1513.8384615384616"/>
      <point x="1049.8538461538462" y="1207.753846153846"/>
      <point x="1047.0153846153846" y="1013.0" type="qcurve" smooth="yes"/>
      <point x="1044.176923076923" y="678.0"/>
      <point x="485.2230769230769" y="69.37692307692308"/>
    </contour>
  </outline>
</glyph>
<glyph name="six.tab" format="2">
  <advance width="1000"/>
  <outline>
    <contour>
      <point x="37" y="471.0" type="qcurve" smooth="yes"/>
      <point x="63.0" y="838"/>
      <point x="591" y="1434.0"/>
      <point x="948" y="1551.0" type="qcurve"/>
      <point x="955" y="1526" type="line"/>
      <point x="678" y="1417"/>
      <point x="214" y="829.0"/>
      <point x="190" y="446.0" type="qcurve" smooth="yes"/>
      <point x="178" y="232"/>
      <point x="305" y="25"/>
      <point x="429" y="25" type="qcurve" smooth="yes"/>
      <point x="557" y="25"/>
      <point x="736" y="304"/>
      <point x="744" y="519" type="qcurve" smooth="yes"/>
      <point x="749" y="633"/>
      <point x="651" y="807"/>
      <point x="548" y="807" type="qcurve" smooth="yes"/>
      <point x="499" y="807"/>
      <point x="425" y="789"/>
      <point x="390" y="769" type="qcurve"/>
      <point x="376" y="786" type="line"/>
      <point x="421" y="814"/>
      <point x="581" y="886.0"/>
      <point x="609" y="886.0" type="qcurve" smooth="yes"/>
      <point x="748" y="886.0"/>
      <point x="907" y="676"/>
      <point x="898" y="518" type="qcurve" smooth="yes"/>
      <point x="884" y="292"/>
      <point x="601" y="-18"/>
      <point x="389" y="-18" type="qcurve" smooth="yes"/>
      <point x="209" y="-18"/>
      <point x="21" y="251"/>
    </contour>
  </outline>
</glyph>
<glyph name="three.tab" format="2">
  <advance width="1000"/>
  <outline>
    <contour>
      <point x="-49" y="184" type="qcurve" smooth="yes"/>
      <point x="-47" y="230"/>
      <point x="7" y="285"/>
      <point x="48" y="286" type="qcurve"/>
      <point x="64" y="285" type="line"/>
      <point x="63" y="263"/>
      <point x="63" y="242"/>
      <point x="62" y="222" type="qcurve" smooth="yes"/>
      <point x="59" y="142"/>
      <point x="194" y="19"/>
      <point x="293" y="19" type="qcurve" smooth="yes"/>
      <point x="460" y="19"/>
      <point x="665" y="234"/>
      <point x="672" y="435" type="qcurve" smooth="yes"/>
      <point x="678" y="604"/>
      <point x="536" y="800"/>
      <point x="395" y="809" type="qcurve" smooth="yes"/>
      <point x="297" y="814" type="line"/>
      <point x="298" y="844" type="line"/>
      <point x="363" y="843" type="line" smooth="yes"/>
      <point x="518" y="839"/>
      <point x="743" y="1040"/>
      <point x="748" y="1188" type="qcurve" smooth="yes"/>
      <point x="752" y="1291"/>
      <point x="636" y="1427"/>
      <point x="537" y="1427" type="qcurve" smooth="yes"/>
      <point x="443" y="1427"/>
      <point x="271" y="1321"/>
      <point x="221" y="1247" type="qcurve"/>
      <point x="201" y="1262" type="line"/>
      <point x="259" y="1364"/>
      <point x="465" y="1515"/>
      <point x="611" y="1515" type="qcurve" smooth="yes"/>
      <point x="760" y="1515"/>
      <point x="923" y="1362"/>
      <point x="919" y="1231" type="qcurve" smooth="yes"/>
      <point x="914" y="1101"/>
      <point x="675" y="888"/>
      <point x="507" y="842" type="qcurve"/>
      <point x="505" y="835" type="line"/>
      <point x="652" y="815"/>
      <point x="847" y="634"/>
      <point x="842" y="477" type="qcurve" smooth="yes"/>
      <point x="836" y="293"/>
      <point x="490" y="-11"/>
      <point x="291" y="-11" type="qcurve" smooth="yes"/>
      <point x="116" y="-11"/>
      <point x="-51" y="104"/>
    </contour>
  </outline>
</glyph>
<glyph name="two.lf" format="2">
  <advance width="914"/>
  <outline>
    <contour>
      <point x="-127" y="12" type="qcurve"/>
      <point x="-148" y="34" type="line"/>
      <point x="-12" y="162" type="line" smooth="yes"/>
      <point x="387" y="539"/>
      <point x="699" y="969"/>
      <point x="702" y="1180" type="qcurve" smooth="yes"/>
      <point x="704" y="1299"/>
      <point x="595" y="1406"/>
      <point x="480" y="1406" type="qcurve" smooth="yes"/>
      <point x="376" y="1406"/>
      <point x="195" y="1305"/>
      <point x="136" y="1238" type="qcurve"/>
      <point x="112" y="1252" type="line"/>
      <point x="182" y="1356"/>
      <point x="398" y="1514"/>
      <point x="562" y="1514" type="qcurve" smooth="yes"/>
      <point x="702" y="1514"/>
      <point x="878" y="1357"/>
      <point x="875" y="1215" type="qcurve" smooth="yes"/>
      <point x="872" y="1008"/>
      <point x="365" y="473"/>
      <point x="87" y="223" type="qcurve"/>
      <point x="86" y="222" type="line"/>
      <point x="140" y="224"/>
      <point x="193" y="225"/>
      <point x="246" y="227" type="qcurve"/>
      <point x="374" y="194"/>
      <point x="504" y="161"/>
      <point x="633" y="128" type="qcurve"/>
      <point x="718" y="261" type="line"/>
      <point x="740" y="253" type="line"/>
      <point x="623" y="-26" type="line"/>
      <point x="434" y="37"/>
      <point x="188" y="102"/>
      <point x="104" y="102" type="qcurve" smooth="yes"/>
      <point x="32" y="103"/>
      <point x="-74" y="57"/>
    </contour>
  </outline>
</glyph>
<glyph name="zero.lf" format="2">
  <advance width="1081"/>
  <outline>
    <contour>
      <point x="72.26153846153846" y="759.2461538461539" type="qcurve" smooth="yes"/>
      <point x="139.83076923076925" y="1104.246153846154"/>
      <point x="482.2307692307692" y="1512.4307692307693"/>
      <point x="702.4461538461538" y="1513.376923076923" type="qcurve" smooth="yes"/>
      <point x="901.1692307692308" y="1514.323076923077"/>
      <point x="1092.1384615384616" y="1075.2384615384615"/>
      <point x="1027.4615384615386" y="750.2153846153847" type="qcurve" smooth="yes"/>
      <point x="960.7307692307693" y="414.65384615384613"/>
      <point x="631.2769230769231" y="-13.915384615384617"/>
      <point x="406.0615384615385" y="-13.915384615384617" type="qcurve" smooth="yes"/>
      <point x="207.1769230769231" y="-13.915384615384617"/>
      <point x="7.423076923076927" y="428.33076923076925"/>
    </contour>
    <contour>
      <point x="233.82307692307694" y="785.2461538461539" type="qcurve" smooth="yes"/>
      <point x="178.14615384615385" y="467.75384615384615"/>
      <point x="279.63076923076926" y="35.69230769230769"/>
      <point x="432.3076923076923" y="35.69230769230769" type="qcurve" smooth="yes"/>
      <point x="585.6307692307693" y="35.69230769230769"/>
      <point x="807.2769230769231" y="431.7846153846154"/>
      <point x="868.9" y="759.2461538461539" type="qcurve" smooth="yes"/>
      <point x="925.4692307692308" y="1064.8461538461538"/>
      <point x="817.1461538461539" y="1460.9615384615386"/>
      <point x="668.1461538461539" y="1460.9615384615386" type="qcurve" smooth="yes"/>
      <point x="507.1461538461539" y="1460.0153846153846"/>
      <point x="289.5" y="1100.6846153846154"/>
    </contour>
  </outline>
</glyph>
<glyph name="zero.tab" format="2">
  <advance width="1000"/>
  <outline>
    <contour>
      <point x="70" y="778" type="qcurve" smooth="yes"/>
      <point x="158" y="1108"/>
      <point x="474" y="1512"/>
      <point x="695" y="1513" type="qcurve" smooth="yes"/>
      <point x="892" y="1514"/>
      <point x="1021" y="1055"/>
      <point x="934" y="731" type="qcurve" smooth="yes"/>
      <point x="851" y="421"/>
      <point x="543" y="-14"/>
      <point x="318" y="-14" type="qcurve" smooth="yes"/>
      <point x="120" y="-14"/>
      <point x="-16" y="449"/>
    </contour>
    <contour>
      <point x="231" y="805" type="qcurve" smooth="yes"/>
      <point x="158" y="485"/>
      <point x="196" y="36"/>
      <point x="347" y="36" type="qcurve" smooth="yes"/>
      <point x="499" y="36"/>
      <point x="700" y="414"/>
      <point x="779" y="741" type="qcurve" smooth="yes"/>
      <point x="852" y="1046"/>
      <point x="806" y="1461"/>
      <point x="658" y="1461" type="qcurve" smooth="yes"/>
      <point x="498" y="1460"/>
      <point x="303" y="1120"/>
    </contour>
  </outline>
</glyph>
